#!OML:ASF I:\golf\golf\golf 2\Subject 1\2002-09-07\Subject1.ASF
:FULLY-SPECIFIED
:DEGREES
39
root 0.206692 18.2062 -6.8456 11.8201 -6.78383 -7.52575
lowerback -8.83565 -0.907101 -1.11023
upperback -2.77206 -1.24442 4.47888
thorax 2.20012 -0.621632 5.15563
lowerneck -17.9583 -5.26281 -2.31205
upperneck 31.1895 -5.41063 -4.80273
head 13.449 -3.33879 -2.40435
rclavicle -1.82199e-014 3.1408e-014
rhumerus -33.0241 -7.01457 -80.1557
rradius 27.4915
rwrist -6.51579
rhand -16.6312 6.41241
rfingers 7.12502
rthumb 9.59117 -23.3493
lclavicle -1.82199e-014 3.1408e-014
lhumerus -31.9203 7.32626 84.7889
lradius 25.6392
lwrist 4.08469
lhand -11.611 35.287
lfingers 7.12502
lthumb 14.4318 64.7652
rfemur -12.751 2.91495 25.8855
rtibia 20.2542
rfoot -10.6479 -6.97961
rtoes -12.4597
lfemur -12.0906 3.92645 -13.8263
ltibia 23.7056
lfoot -16.0091 8.31771
ltoes -7.79705
40
root 0.211969 18.2076 -6.84433 11.7923 -6.93919 -7.58585
lowerback -8.89324 -0.927069 -1.04981
upperback -2.8818 -1.27516 4.51991
thorax 2.12072 -0.634402 5.16101
lowerneck -17.5261 -4.81414 -2.10662
upperneck 31.6878 -4.78864 -4.94527
head 13.5702 -3.06579 -2.3997
rclavicle -4.31114e-015 1.07344e-014
rhumerus -33.2713 -6.88383 -80.1311
rradius 27.4249
rwrist -6.40141
rhand -16.9032 6.31451
rfingers 7.12502
rthumb 9.32875 -23.4591
lclavicle -4.31114e-015 1.07344e-014
lhumerus -32.1015 7.42495 84.7311
lradius 25.4267
lwrist 4.03842
lhand -11.6495 34.9823
lfingers 7.12502
lthumb 14.3947 64.4632
rfemur -12.7194 2.7589 25.9693
rtibia 20.2582
rfoot -10.6196 -6.87474
rtoes -11.9047
lfemur -12.0436 3.98148 -13.8076
ltibia 23.7408
lfoot -15.9763 8.41851
ltoes -7.95727
41
root 0.215796 18.2091 -6.84452 11.7825 -7.04448 -7.60289
lowerback -8.90977 -0.933591 -1.02497
upperback -2.95408 -1.2844 4.52868
thorax 2.05539 -0.63713 5.1552
lowerneck -17.3851 -4.36811 -1.8726
upperneck 32.2356 -4.18703 -5.01212
head 13.7808 -2.78747 -2.38747
rclavicle 1.18494e-015 1.17283e-014
rhumerus -33.4168 -6.84533 -80.1107
rradius 27.3822
rwrist -6.34079
rhand -17.1913 6.1945
rfingers 7.12502
rthumb 9.05077 -23.5913
lclavicle 1.18494e-015 1.17283e-014
lhumerus -32.176 7.52252 84.6557
lradius 25.2738
lwrist 3.8767
lhand -11.6052 34.932
lfingers 7.12502
lthumb 14.4374 64.4098
rfemur -12.7377 2.54987 26.0306
rtibia 20.2669
rfoot -10.4923 -6.82501
rtoes -11.5875
lfemur -12.0279 4.01476 -13.8257
ltibia 23.7521
lfoot -15.8874 8.54113
ltoes -8.37907
42
root 0.219396 18.2084 -6.84707 11.8122 -7.10404 -7.57055
lowerback -8.93234 -0.955243 -1.06347
upperback -2.97628 -1.31023 4.54712
thorax 2.04852 -0.649693 5.19386
lowerneck -17.4416 -3.94438 -1.56184
upperneck 32.7021 -3.58903 -5.20487
head 13.9992 -2.51909 -2.44234
rclavicle -2.95071e-016 -1.39149e-014
rhumerus -33.4016 -6.83659 -80.0687
rradius 27.3627
rwrist -6.3
rhand -17.5193 6.0757
rfingers 7.12502
rthumb 8.73428 -23.7236
lclavicle -2.95071e-016 -1.39149e-014
lhumerus -32.166 7.55396 84.7046
lradius 25.2552
lwrist 4.08692
lhand -11.9908 35.1328
lfingers 7.12502
lthumb 14.0659 64.6368
rfemur -12.7865 2.72508 25.9177
rtibia 20.2958
rfoot -10.5357 -6.78422
rtoes -12.0254
lfemur -12.0397 3.96082 -13.8822
ltibia 23.7418
lfoot -15.8837 8.63768
ltoes -8.36448
43
root 0.223599 18.2064 -6.84785 11.8003 -7.20198 -7.58366
lowerback -8.95865 -0.96383 -1.07978
upperback -2.98869 -1.32216 4.60588
thorax 2.05297 -0.655628 5.26396
lowerneck -17.3492 -3.54938 -1.31393
upperneck 33.1644 -3.00044 -5.43718
head 14.1907 -2.26863 -2.49952
rclavicle -3.85332e-014 3.06128e-014
rhumerus -33.3864 -6.8344 -79.9497
rradius 27.3019
rwrist -6.25401
rhand -17.7373 6.01331
rfingers 7.12502
rthumb 8.52382 -23.7946
lclavicle -3.85332e-014 3.06128e-014
lhumerus -32.1272 7.37351 84.8813
lradius 25.1596
lwrist 4.5941
lhand -12.5037 35.1728
lfingers 7.12502
lthumb 13.5716 64.7105
rfemur -12.7742 2.98101 25.8327
rtibia 20.3462
rfoot -10.7499 -6.74852
rtoes -11.8414
lfemur -11.9616 3.96646 -13.8955
ltibia 23.6935
lfoot -15.9252 8.67484
ltoes -8.24696
44
root 0.228464 18.2048 -6.84795 11.7998 -7.32888 -7.59073
lowerback -9.08088 -0.917881 -1.08994
upperback -2.97771 -1.26284 4.63129
thorax 2.12668 -0.627205 5.30242
lowerneck -17.3166 -3.13758 -1.13533
upperneck 33.7759 -2.4213 -5.4761
head 14.4742 -2.00486 -2.47677
rclavicle 2.83268e-014 7.95139e-016
rhumerus -33.4012 -7.06241 -79.7453
rradius 27.2699
rwrist -6.0688
rhand -17.7087 5.96506
rfingers 7.12502
rthumb 8.55143 -23.8418
lclavicle 2.83268e-014 7.95139e-016
lhumerus -32.1112 7.37892 84.9041
lradius 25.086
lwrist 4.36278
lhand -12.2604 35.0234
lfingers 7.12502
lthumb 13.8061 64.5452
rfemur -12.7701 3.04196 25.7982
rtibia 20.3714
rfoot -10.8624 -6.66256
rtoes -11.5353
lfemur -11.9083 4.01136 -13.932
ltibia 23.6274
lfoot -15.8678 8.75383
ltoes -8.48864
45
root 0.234985 18.2046 -6.84759 11.78 -7.43768 -7.52239
lowerback -9.23576 -0.883987 -1.14496
upperback -2.91206 -1.21663 4.62343
thorax 2.27668 -0.607346 5.32984
lowerneck -17.4062 -2.69587 -0.890483
upperneck 34.3763 -1.80874 -5.52347
head 14.7875 -1.72058 -2.46511
rclavicle 1.21693e-014 -2.20651e-014
rhumerus -33.3164 -7.33312 -79.5681
rradius 27.2644
rwrist -5.71055
rhand -17.6558 5.73411
rfingers 7.12502
rthumb 8.60254 -24.0706
lclavicle 1.21693e-014 -2.20651e-014
lhumerus -31.9253 7.32768 84.9515
lradius 24.9026
lwrist 4.19377
lhand -11.9362 34.7508
lfingers 7.12502
lthumb 14.1185 64.2511
rfemur -12.7694 3.01565 25.6855
rtibia 20.4158
rfoot -10.9004 -6.53179
rtoes -11.9098
lfemur -11.8473 4.01884 -14.0458
ltibia 23.5429
lfoot -15.8113 8.79823
ltoes -8.29819
46
root 0.2414 18.2018 -6.84725 11.7167 -7.53803 -7.41655
lowerback -9.30803 -0.89074 -1.23955
upperback -2.84241 -1.22032 4.62771
thorax 2.39128 -0.612197 5.38775
lowerneck -17.4477 -2.27942 -0.62757
upperneck 34.8912 -1.1911 -5.70611
head 15.0573 -1.4518 -2.50613
rclavicle 5.18704e-016 -2.38542e-015
rhumerus -33.1848 -7.39932 -79.4908
rradius 27.2312
rwrist -5.45309
rhand -17.8918 5.5061
rfingers 7.12502
rthumb 8.37477 -24.3079
lclavicle 5.18704e-016 -2.38542e-015
lhumerus -31.9095 7.31626 85.0024
lradius 25.0597
lwrist 4.12925
lhand -11.6964 34.88
lfingers 7.12502
lthumb 14.3496 64.3641
rfemur -12.6327 3.38417 25.4166
rtibia 20.4295
rfoot -11.2332 -6.21068
rtoes -4.19768
lfemur -11.7542 4.03283 -14.1949
ltibia 23.5034
lfoot -15.8371 8.79253
ltoes -7.94301
47
root 0.246299 18.2019 -6.8478 11.6724 -7.64571 -7.34945
lowerback -9.34883 -0.876771 -1.30127
upperback -2.7861 -1.19825 4.62669
thorax 2.47124 -0.603453 5.42442
lowerneck -17.4869 -1.85655 -0.355557
upperneck 35.3638 -0.581162 -5.84078
head 15.3145 -1.17865 -2.52758
rclavicle 7.79609e-015 -4.55217e-014
rhumerus -33.0962 -7.48415 -79.4523
rradius 27.22
rwrist -5.35709
rhand -18.2073 5.55821
rfingers 7.12502
rthumb 8.0703 -24.2677
lclavicle 7.79609e-015 -4.55217e-014
lhumerus -31.8322 7.30197 85.0313
lradius 25.1183
lwrist 4.0093
lhand -11.6001 35.2101
lfingers 7.12502
lthumb 14.4423 64.6876
rfemur -12.5873 3.46721 25.303
rtibia 20.397
rfoot -11.3451 -6.05365
rtoes 0.234268
lfemur -11.6844 4.04055 -14.3091
ltibia 23.5032
lfoot -15.8518 8.90505
ltoes -8.20328
48
root 0.25006 18.2061 -6.85 11.6805 -7.70294 -7.45437
lowerback -9.39023 -0.838844 -1.18574
upperback -2.73254 -1.1616 4.65401
thorax 2.5445 -0.58689 5.39121
lowerneck -17.5767 -1.43466 -0.0632471
upperneck 35.8364 0.00933995 -5.93181
head 15.5906 -0.905655 -2.53785
rclavicle -2.58824e-014 -1.39149e-015
rhumerus -33.0487 -7.69505 -79.3938
rradius 27.2562
rwrist -5.19995
rhand -18.3754 5.72428
rfingers 7.12502
rthumb 7.90803 -24.1078
lclavicle -2.58824e-014 -1.39149e-015
lhumerus -31.6699 7.26353 85.0717
lradius 25.0806
lwrist 4.00215
lhand -11.8115 35.3013
lfingers 7.12502
lthumb 14.2387 64.7932
rfemur -12.5666 3.62988 25.3802
rtibia 20.3461
rfoot -11.4562 -6.1322
rtoes -1.86277
lfemur -11.6854 4.09627 -14.2149
ltibia 23.5294
lfoot -15.8657 8.92107
ltoes -8.11215
49
root 0.254883 18.2081 -6.85245 11.693 -7.73812 -7.60765
lowerback -9.37609 -0.827282 -1.02274
upperback -2.72973 -1.16352 4.71434
thorax 2.53806 -0.587525 5.36152
lowerneck -17.5586 -1.04109 0.198771
upperneck 36.3455 0.599177 -6.10077
head 15.8682 -0.649116 -2.5757
rclavicle -2.01363e-014 -1.90833e-014
rhumerus -33.0945 -7.65687 -79.4181
rradius 27.3437
rwrist -5.42599
rhand -18.7319 5.78919
rfingers 7.12502
rthumb 7.56396 -24.0556
lclavicle -2.01363e-014 -1.90833e-014
lhumerus -31.6118 7.32373 85.0736
lradius 25.0163
lwrist 4.03733
lhand -12.0181 35.0915
lfingers 7.12502
lthumb 14.0396 64.5974
rfemur -12.5428 3.77123 25.5149
rtibia 20.3042
rfoot -11.4421 -6.20503
rtoes -4.39526
lfemur -11.7158 4.17612 -14.0602
ltibia 23.5841
lfoot -15.879 8.89117
ltoes -7.79341
50
root 0.261117 18.2058 -6.85411 11.6616 -7.82328 -7.64717
lowerback -9.3146 -0.815426 -0.966197
upperback -2.74413 -1.15283 4.74782
thorax 2.48762 -0.581175 5.36607
lowerneck -17.3778 -0.658684 0.42552
upperneck 36.7466 1.17718 -6.25816
head 16.0596 -0.399113 -2.59645
rclavicle -2.37889e-014 -2.04748e-014
rhumerus -33.1588 -7.42313 -79.5275
rradius 27.4376
rwrist -6.13066
rhand -19.3693 5.8081
rfingers 7.12502
rthumb 6.94869 -24.0579
lclavicle -2.37889e-014 -2.04748e-014
lhumerus -31.5735 7.49248 85.0379
lradius 24.9148
lwrist 3.96965
lhand -12.0117 34.9013
lfingers 7.12502
lthumb 14.0457 64.4067
rfemur -12.4778 3.83188 25.5313
rtibia 20.2295
rfoot -11.2019 -6.16994
rtoes -2.9507
lfemur -11.7149 4.19983 -14.0486
ltibia 23.6778
lfoot -15.9225 8.96784
ltoes -7.77196
51
root 0.266388 18.2049 -6.85577 11.6301 -7.91972 -7.63802
lowerback -9.31082 -0.774555 -0.96213
upperback -2.71466 -1.0997 4.74828
thorax 2.51075 -0.555358 5.37046
lowerneck -17.1903 -0.315906 0.636102
upperneck 37.0433 1.67405 -6.3476
head 16.1957 -0.174314 -2.59425
rclavicle -5.15598e-016 -3.67752e-014
rhumerus -33.1421 -7.3804 -79.5675
rradius 27.4703
rwrist -6.52882
rhand -19.8232 5.90737
rfingers 7.12502
rthumb 6.51048 -23.9726
lclavicle -5.15598e-016 -3.67752e-014
lhumerus -31.4712 7.56236 85.0321
lradius 24.9225
lwrist 3.83334
lhand -11.8198 34.8999
lfingers 7.12502
lthumb 14.2306 64.3924
rfemur -12.4115 3.84904 25.4995
rtibia 20.1655
rfoot -11.0438 -6.19591
rtoes -2.24343
lfemur -11.7006 4.15928 -14.0876
ltibia 23.7599
lfoot -16.0068 8.99962
ltoes -7.32684
52
root 0.271488 18.2022 -6.85946 11.6099 -8.00476 -7.66205
lowerback -9.40056 -0.717771 -0.958196
upperback -2.62855 -1.02903 4.75828
thorax 2.64293 -0.523243 5.38705
lowerneck -17.1084 -0.00447183 0.867862
upperneck 37.369 2.12989 -6.45673
head 16.3749 0.032224 -2.61511
rclavicle 1.63997e-014 -1.53064e-014
rhumerus -33.0757 -7.42641 -79.5648
rradius 27.5101
rwrist -6.81015
rhand -20.0671 6.05947
rfingers 7.12502
rthumb 6.27506 -23.8276
lclavicle 1.63997e-014 -1.53064e-014
lhumerus -31.3552 7.38286 85.1304
lradius 25.085
lwrist 3.85091
lhand -11.6479 35.1089
lfingers 7.12502
lthumb 14.3963 64.5897
rfemur -12.371 3.8751 25.5015
rtibia 20.1349
rfoot -11.1261 -6.16362
rtoes -2.18204
lfemur -11.6817 4.07008 -14.0835
ltibia 23.8237
lfoot -16.0734 9.05048
ltoes -6.73297
53
root 0.278243 18.2008 -6.86369 11.6005 -8.0896 -7.76561
lowerback -9.53849 -0.644794 -0.878403
upperback -2.50955 -0.946987 4.79333
thorax 2.83423 -0.486571 5.38856
lowerneck -17.0536 0.293264 1.1115
upperneck 37.6958 2.56964 -6.58043
head 16.5658 0.231302 -2.64804
rclavicle -3.82288e-014 4.85035e-014
rhumerus -32.9755 -7.56567 -79.5196
rradius 27.5247
rwrist -7.2247
rhand -20.1515 6.36151
rfingers 7.12502
rthumb 6.19357 -23.528
lclavicle -3.82288e-014 4.85035e-014
lhumerus -31.159 7.11387 85.2856
lradius 25.1501
lwrist 3.98362
lhand -11.7094 35.2506
lfingers 7.12502
lthumb 14.337 64.7356
rfemur -12.3653 3.93108 25.5774
rtibia 20.1448
rfoot -11.2234 -6.00544
rtoes -0.988437
lfemur -11.6636 4.06591 -13.9892
ltibia 23.8679
lfoot -16.1423 9.01821
ltoes -5.88109
